<svg width="99" height="107" viewBox="0 0 99 107" fill="none" xmlns="http://www.w3.org/2000/svg">
<path d="M3.62471 23.4878H90.5046V37.4443H3.62471V23.4878ZM84.841 23.4878H99C99 23.4878 99 23.9039 99 24.7359C99 25.568 98.9622 26.5136 98.8867 27.5726C98.8867 28.556 98.849 29.3503 98.7735 29.9555C98.1693 41.3022 97.5652 51.0226 96.9611 59.1166C96.357 67.135 95.6773 73.7918 94.9222 79.087C94.2426 84.3821 93.4119 88.5804 92.4302 91.6819C91.524 94.7833 90.4291 97.0905 89.1453 98.6034C87.4085 100.797 85.6339 102.31 83.8215 103.142C82.0847 103.974 79.9703 104.542 77.4783 104.844C75.4394 105.147 72.7586 105.298 69.4359 105.298C66.1133 105.298 62.7151 105.26 59.2414 105.185C59.1659 103.142 58.6751 100.759 57.7689 98.0361C56.9382 95.3128 55.881 93.0057 54.5973 91.1145C58.222 91.4171 61.5446 91.6062 64.5652 91.6819C67.6613 91.6819 69.9645 91.6819 71.4748 91.6819C72.6076 91.6819 73.5892 91.5684 74.4199 91.3415C75.2506 91.1145 76.0057 90.6228 76.6854 89.8664C77.667 88.883 78.5732 86.9919 79.4039 84.193C80.2346 81.3185 80.9519 77.3471 81.5561 72.2789C82.2357 67.2107 82.8398 60.8943 83.3684 53.3298C83.897 45.6896 84.3879 36.6501 84.841 26.211V23.4878ZM38.3993 0H52.8982V23.4878C52.8982 28.6317 52.6339 34.1159 52.1053 39.9406C51.6522 45.7653 50.6705 51.7034 49.1602 57.755C47.6499 63.731 45.3467 69.6691 42.2506 75.5695C39.1545 81.4698 35.0389 87.1053 29.9039 92.4761C24.8444 97.8469 18.4634 102.688 10.7609 107C10.0057 105.865 8.98627 104.579 7.70252 103.142C6.49428 101.705 5.17277 100.343 3.73799 99.0573C2.37872 97.7713 1.13272 96.7123 0 95.8802C7.0984 92.0979 12.9508 87.8618 17.5572 83.1718C22.2391 78.4818 25.9771 73.6027 28.7712 68.5345C31.5652 63.3906 33.6419 58.2089 35.0011 52.9894C36.4359 47.6942 37.3421 42.5504 37.7197 37.5578C38.1728 32.4896 38.3993 27.7996 38.3993 23.4878V0Z" fill="white"/>
</svg>
